<svg width="232" height="123" viewBox="0 0 232 123" fill="none" xmlns="http://www.w3.org/2000/svg">
<path d="M14.912 39.344C15.936 37.68 17.408 36.336 19.328 35.312C21.248 34.288 23.4453 33.776 25.92 33.776C28.864 33.776 31.5307 34.5227 33.92 36.016C36.3093 37.5093 38.1867 39.6427 39.552 42.416C40.96 45.1893 41.664 48.4107 41.664 52.08C41.664 55.7493 40.96 58.992 39.552 61.808C38.1867 64.5813 36.3093 66.736 33.92 68.272C31.5307 69.7653 28.864 70.512 25.92 70.512C23.4027 70.512 21.2053 70.0213 19.328 69.04C17.4507 68.016 15.9787 66.672 14.912 65.008V70H3.968V22.64H14.912V39.344ZM30.528 52.08C30.528 49.3493 29.76 47.216 28.224 45.68C26.7307 44.1013 24.8747 43.312 22.656 43.312C20.48 43.312 18.624 44.1013 17.088 45.68C15.5947 47.2587 14.848 49.4133 14.848 52.144C14.848 54.8747 15.5947 57.0293 17.088 58.608C18.624 60.1867 20.48 60.976 22.656 60.976C24.832 60.976 26.688 60.1867 28.224 58.608C29.76 56.9867 30.528 54.8107 30.528 52.08ZM82.6695 34.288V70H71.7255V65.136C70.6162 66.7147 69.1015 67.9947 67.1815 68.976C65.3042 69.9147 63.2135 70.384 60.9095 70.384C58.1788 70.384 55.7682 69.7867 53.6775 68.592C51.5868 67.3547 49.9655 65.584 48.8135 63.28C47.6615 60.976 47.0855 58.2667 47.0855 55.152V34.288H57.9655V53.68C57.9655 56.0693 58.5842 57.9253 59.8215 59.248C61.0588 60.5707 62.7228 61.232 64.8135 61.232C66.9468 61.232 68.6322 60.5707 69.8695 59.248C71.1068 57.9253 71.7255 56.0693 71.7255 53.68V34.288H82.6695ZM101.475 39.344C102.499 37.68 103.971 36.336 105.891 35.312C107.811 34.288 110.008 33.776 112.483 33.776C115.427 33.776 118.093 34.5227 120.483 36.016C122.872 37.5093 124.749 39.6427 126.115 42.416C127.523 45.1893 128.227 48.4107 128.227 52.08C128.227 55.7493 127.523 58.992 126.115 61.808C124.749 64.5813 122.872 66.736 120.483 68.272C118.093 69.7653 115.427 70.512 112.483 70.512C109.965 70.512 107.768 70.0213 105.891 69.04C104.013 68.016 102.541 66.672 101.475 65.008V70H90.5305V22.64H101.475V39.344ZM117.091 52.08C117.091 49.3493 116.323 47.216 114.787 45.68C113.293 44.1013 111.437 43.312 109.219 43.312C107.043 43.312 105.187 44.1013 103.651 45.68C102.157 47.2587 101.411 49.4133 101.411 52.144C101.411 54.8747 102.157 57.0293 103.651 58.608C105.187 60.1867 107.043 60.976 109.219 60.976C111.395 60.976 113.251 60.1867 114.787 58.608C116.323 56.9867 117.091 54.8107 117.091 52.08ZM144.912 39.344C145.936 37.68 147.408 36.336 149.328 35.312C151.248 34.288 153.445 33.776 155.92 33.776C158.864 33.776 161.531 34.5227 163.92 36.016C166.309 37.5093 168.187 39.6427 169.552 42.416C170.96 45.1893 171.664 48.4107 171.664 52.08C171.664 55.7493 170.96 58.992 169.552 61.808C168.187 64.5813 166.309 66.736 163.92 68.272C161.531 69.7653 158.864 70.512 155.92 70.512C153.403 70.512 151.205 70.0213 149.328 69.04C147.451 68.016 145.979 66.672 144.912 65.008V70H133.968V22.64H144.912V39.344ZM160.528 52.08C160.528 49.3493 159.76 47.216 158.224 45.68C156.731 44.1013 154.875 43.312 152.656 43.312C150.48 43.312 148.624 44.1013 147.088 45.68C145.595 47.2587 144.848 49.4133 144.848 52.144C144.848 54.8747 145.595 57.0293 147.088 58.608C148.624 60.1867 150.48 60.976 152.656 60.976C154.832 60.976 156.688 60.1867 158.224 58.608C159.76 56.9867 160.528 54.8107 160.528 52.08ZM188.35 22.64V70H177.406V22.64H188.35ZM229.944 51.568C229.944 52.592 229.881 53.6587 229.753 54.768H204.985C205.155 56.9867 205.859 58.6933 207.097 59.888C208.377 61.04 209.934 61.616 211.769 61.616C214.499 61.616 216.398 60.464 217.465 58.16H229.113C228.515 60.5067 227.427 62.6187 225.849 64.496C224.313 66.3733 222.371 67.8453 220.025 68.912C217.678 69.9787 215.054 70.512 212.153 70.512C208.654 70.512 205.539 69.7653 202.809 68.272C200.078 66.7787 197.945 64.6453 196.409 61.872C194.873 59.0987 194.105 55.856 194.105 52.144C194.105 48.432 194.851 45.1893 196.345 42.416C197.881 39.6427 200.014 37.5093 202.745 36.016C205.475 34.5227 208.611 33.776 212.153 33.776C215.609 33.776 218.681 34.5013 221.369 35.952C224.057 37.4027 226.147 39.472 227.641 42.16C229.177 44.848 229.944 47.984 229.944 51.568ZM218.745 48.688C218.745 46.8107 218.105 45.3173 216.825 44.208C215.545 43.0987 213.945 42.544 212.025 42.544C210.19 42.544 208.633 43.0773 207.353 44.144C206.115 45.2107 205.347 46.7253 205.049 48.688H218.745Z" fill="white"/>
<path d="M12.384 88.912C14.784 88.912 16.728 89.644 18.216 91.108C19.704 92.548 20.448 94.636 20.448 97.372V109H17.208V97.84C17.208 95.872 16.716 94.372 15.732 93.34C14.748 92.284 13.404 91.756 11.7 91.756C9.972 91.756 8.592 92.296 7.56 93.376C6.552 94.456 6.048 96.028 6.048 98.092V109H2.772V89.272H6.048V92.08C6.696 91.072 7.572 90.292 8.676 89.74C9.804 89.188 11.04 88.912 12.384 88.912ZM43.7993 98.38C43.7993 99.004 43.7633 99.664 43.6913 100.36H27.9233C28.0433 102.304 28.7033 103.828 29.9033 104.932C31.1273 106.012 32.6033 106.552 34.3313 106.552C35.7473 106.552 36.9233 106.228 37.8593 105.58C38.8193 104.908 39.4913 104.02 39.8753 102.916H43.4033C42.8753 104.812 41.8193 106.36 40.2353 107.56C38.6513 108.736 36.6833 109.324 34.3313 109.324C32.4593 109.324 30.7793 108.904 29.2913 108.064C27.8273 107.224 26.6753 106.036 25.8353 104.5C24.9953 102.94 24.5753 101.14 24.5753 99.1C24.5753 97.06 24.9833 95.272 25.7993 93.736C26.6153 92.2 27.7553 91.024 29.2193 90.208C30.7073 89.368 32.4113 88.948 34.3313 88.948C36.2033 88.948 37.8593 89.356 39.2993 90.172C40.7393 90.988 41.8433 92.116 42.6113 93.556C43.4033 94.972 43.7993 96.58 43.7993 98.38ZM40.4153 97.696C40.4153 96.448 40.1393 95.38 39.5873 94.492C39.0353 93.58 38.2793 92.896 37.3193 92.44C36.3833 91.96 35.3393 91.72 34.1873 91.72C32.5313 91.72 31.1153 92.248 29.9393 93.304C28.7873 94.36 28.1273 95.824 27.9593 97.696H40.4153ZM74.4036 89.272L68.2476 109H64.8636L60.1116 93.34L55.3596 109H51.9756L45.7836 89.272H49.1316L53.6676 105.832L58.5636 89.272H61.9116L66.6996 105.868L71.1636 89.272H74.4036ZM84.6388 109.324C83.1268 109.324 81.7708 109.072 80.5708 108.568C79.3708 108.04 78.4228 107.32 77.7268 106.408C77.0308 105.472 76.6468 104.404 76.5748 103.204H79.9588C80.0548 104.188 80.5108 104.992 81.3268 105.616C82.1668 106.24 83.2588 106.552 84.6028 106.552C85.8508 106.552 86.8348 106.276 87.5548 105.724C88.2748 105.172 88.6348 104.476 88.6348 103.636C88.6348 102.772 88.2508 102.136 87.4828 101.728C86.7148 101.296 85.5268 100.876 83.9188 100.468C82.4548 100.084 81.2548 99.7 80.3188 99.316C79.4068 98.908 78.6148 98.32 77.9428 97.552C77.2948 96.76 76.9708 95.728 76.9708 94.456C76.9708 93.448 77.2708 92.524 77.8708 91.684C78.4708 90.844 79.3228 90.184 80.4268 89.704C81.5308 89.2 82.7908 88.948 84.2068 88.948C86.3908 88.948 88.1548 89.5 89.4988 90.604C90.8428 91.708 91.5628 93.22 91.6588 95.14H88.3828C88.3108 94.108 87.8908 93.28 87.1228 92.656C86.3788 92.032 85.3708 91.72 84.0988 91.72C82.9228 91.72 81.9868 91.972 81.2908 92.476C80.5948 92.98 80.2468 93.64 80.2468 94.456C80.2468 95.104 80.4508 95.644 80.8588 96.076C81.2908 96.484 81.8188 96.82 82.4428 97.084C83.0908 97.324 83.9788 97.6 85.1068 97.912C86.5228 98.296 87.6748 98.68 88.5628 99.064C89.4508 99.424 90.2068 99.976 90.8308 100.72C91.4788 101.464 91.8148 102.436 91.8388 103.636C91.8388 104.716 91.5388 105.688 90.9388 106.552C90.3388 107.416 89.4868 108.1 88.3828 108.604C87.3028 109.084 86.0548 109.324 84.6388 109.324Z" fill="white"/>
</svg>
